# xmcd
#
# Track frame offsets:
#	150
#	14465
#	32110
#	44872
#	57765
#	70090
#	82842
#	95960
#	106077
#	119452
#	133032
#	146247
#	159452
#	177052
#
# Disc length: 2542 seconds
#
# Revision: 1
# Processed by: cddbd v1.5.2PL0 Copyright (c) Steve Scherf et al.
# Submitted via: audiograbber 1.83.01
#
DISCID=c309ec0e
DTITLE=Tom Astor - Lucille
DYEAR=1900
DGENRE=
TTITLE0=Ich hör' so gerne Cajun Music
TTITLE1=Lucille
TTITLE2=Er ist ein Gottesmann für Trucker
TTITLE3=Nur auf der Strasse
TTITLE4=Verdammte Radarfalle
TTITLE5=Bleifuß Joe
TTITLE6=Ich bin Fernfahrer
TTITLE7=Ihr Leben, das ist ihr Laster
TTITLE8=Ich hatte doch heut' abend noch was vor
TTITLE9=Ausgelaugt (und kaputt vom fahr'n)
TTITLE10=Partner fahr' rechts
TTITLE11=Der Truck, das ist sein Leben
TTITLE12=Mein Freund Charly
TTITLE13=Viel erlebt und viel versäumt
EXTD=
EXTT0=
EXTT1=
EXTT2=
EXTT3=
EXTT4=
EXTT5=
EXTT6=
EXTT7=
EXTT8=
EXTT9=
EXTT10=
EXTT11=
EXTT12=
EXTT13=
PLAYORDER=
